<?xml version="1.0" encoding="UTF-8" standalone="no"?>
<!-- Created with Inkscape (http://www.inkscape.org/) -->
<svg
   xmlns:svg="http://www.w3.org/2000/svg"
   xmlns="http://www.w3.org/2000/svg"
   version="1.0"
   width="688"
   height="688"
   id="svg2652">
  <defs
     id="defs2654" />
  <g
     id="layer1">
       <path
       d="M 341.5937,525.99662 C 338.79444,524.4317 338.09832,522.7927 338.09832,517.76675 C 338.09832,513.35291 338.46484,512.19346 341.61514,506.64148 C 343.54939,503.23264 346.03932,498.78816 347.14832,496.76487 C 348.25732,494.74157 349.49099,492.73662 349.88982,492.3094 C 350.34,491.82718 350.52453,497.48936 350.37645,507.24204 C 350.15618,521.75008 350.01914,523.068 348.58445,524.47575 C 346.58146,526.44112 343.56332,527.09773 341.5937,525.99662 z M 323.24775,520.65557 C 322.55614,520.25147 321.54673,518.84998 321.00459,517.54115 C 320.11367,515.39027 320.23616,514.73661 322.27852,510.7431 C 324.44248,506.51181 324.97572,506.06624 334.87371,500.21866 C 340.55828,496.86031 345.3396,494.24289 345.49888,494.40217 C 345.87816,494.78146 332.67635,517.85232 330.92099,519.87781 C 329.47519,521.54609 325.46714,521.95235 323.24775,520.65557 z M 357.73427,519.68984 C 353.53969,515.12829 352.85657,512.46471 352.85657,500.67097 C 352.85657,494.16619 353.16225,489.59078 353.59683,489.59078 C 354.00396,489.59078 357.37041,494.69863 361.07782,500.94157 C 368.65039,513.69307 369.58388,517.18782 366.15834,519.96166 C 363.64618,521.99588 359.73887,521.8698 357.73427,519.68984 z M 310.91207,508.00441 C 307.08098,506.06661 306.16937,500.57661 309.23425,497.90002 C 310.45834,496.83099 314.82629,494.26796 343.92395,477.54467 C 350.75935,473.61616 360.72116,467.86407 366.06132,464.76225 C 371.40148,461.66042 383.81006,454.49527 393.63594,448.83968 C 403.46183,443.1841 414.99657,436.52916 419.26869,434.05092 C 423.54082,431.57268 433.50264,425.81825 441.40607,421.2633 C 449.3095,416.70835 462.76669,408.93984 471.31094,403.99995 C 479.85519,399.06007 488.06932,394.3255 489.56457,393.47869 C 492.20788,391.98169 500.09476,387.42709 515.19731,378.67604 C 519.25583,376.32436 530.6158,369.77373 540.44169,364.11909 C 550.26758,358.46446 564.77338,350.09364 572.67681,345.51729 C 580.58024,340.94094 588.44484,336.40621 590.15369,335.44012 C 591.86254,334.47403 597.62991,331.14979 602.97006,328.05292 C 618.5537,319.01564 620.89319,317.72426 621.12933,318.02912 C 621.25214,318.18768 622.63438,320.46036 624.20097,323.07952 C 627.08102,327.89464 627.63482,329.58029 626.33674,329.58029 C 625.94483,329.58029 623.00124,331.131 619.79543,333.02634 C 612.77085,337.17938 597.68791,345.92084 580.83269,355.60753 C 573.99729,359.53584 565.08408,364.6738 561.02556,367.02523 C 556.96704,369.37667 550.15106,373.32536 545.87894,375.80011 C 541.60681,378.27487 532.51884,383.51389 525.68344,387.44239 C 510.62184,396.09872 500.03571,402.22294 490.72969,407.66362 C 486.88478,409.91151 482.40342,412.49485 480.77111,413.40437 C 479.1388,414.31389 473.19666,417.72205 467.56636,420.97805 C 461.93606,424.23406 452.84537,429.49138 447.36482,432.661 C 441.88427,435.83061 434.77726,439.97466 431.57145,441.86998 C 428.36564,443.76531 425.6257,445.31603 425.48269,445.31603 C 425.33969,445.31603 422.65965,446.83114 419.52706,448.68294 C 413.48473,452.25481 384.72452,468.87856 379.89928,471.58828 C 378.3251,472.4723 375.62313,474.08821 373.89491,475.17919 C 372.16669,476.27016 370.59985,477.16278 370.41306,477.16278 C 370.10877,477.16278 359.6576,483.09254 356.74032,484.92038 C 356.0995,485.32189 353.82751,486.65045 351.69145,487.87273 C 349.55538,489.09501 344.69909,491.90406 340.89967,494.11504 C 337.10026,496.32603 333.83361,498.13503 333.64045,498.13503 C 333.4473,498.13503 332.36146,498.78414 331.22748,499.57749 C 327.22017,502.38108 314.88606,509.01383 313.7092,508.99808 C 313.23881,508.99178 311.9801,508.54463 310.91207,508.00441 z M 346.98057,486.53944 C 349.8467,483.37241 345.88253,479.06228 342.27661,481.42496 C 339.64109,483.15182 339.20436,484.70189 340.84313,486.51271 C 342.59833,488.45219 345.23915,488.46369 346.98057,486.53944 z M 370.72182,506.80281 C 367.02996,504.89612 365.74243,503.551 361.2425,496.89943 C 358.37853,492.66606 356.01915,488.93276 355.99943,488.60319 C 355.9797,488.27362 356.79055,487.62718 357.80131,487.16664 C 359.36772,486.45294 360.54323,486.82251 365.763,489.66973 C 376.62752,495.59597 379.80931,497.90111 380.71638,500.50315 C 381.38635,502.42503 381.31537,503.41597 380.37789,505.22886 C 379.46429,506.99557 376.67026,509.01125 375.13757,509.00935 C 375.05858,509.00926 373.07149,508.01631 370.72182,506.80281 z M 318.60486,476.83475 C 312.45137,473.31147 302.69794,467.694 296.93057,464.35147 C 286.10727,458.07873 278.13446,453.5025 273.23086,450.74832 C 271.67996,449.87722 265.97919,446.60133 260.56249,443.46854 C 255.1458,440.33575 246.05142,435.0763 240.35277,431.78088 C 234.65412,428.48545 228.36245,424.8897 226.37127,423.79032 C 224.3801,422.69094 221.87561,421.22973 220.80574,420.54318 C 219.73588,419.85663 218.16296,418.89591 217.31037,418.40825 C 216.40184,417.88859 215.83631,416.8464 215.94407,415.89039 C 216.17068,413.87989 220.90717,406.5073 221.9742,406.50417 C 222.40141,406.50291 227.64448,409.33077 233.62545,412.78829 C 239.60642,416.24581 252.53931,423.70675 262.3652,429.36817 C 272.19109,435.02959 284.9492,442.39605 290.71657,445.73809 C 296.48394,449.08012 306.08934,454.63929 312.0619,458.0918 L 322.92111,464.36906 L 327.79109,472.06254 C 330.46958,476.29395 332.66107,480.13707 332.66107,480.6028 C 332.66107,481.06853 332.01576,481.85259 331.22705,482.34515 C 330.01611,483.1014 328.0526,482.2442 318.60486,476.83475 z M 330.99163,473.45308 C 329.0054,470.15326 326.63809,466.11788 325.73093,464.48558 C 324.82378,462.85327 321.41331,456.91113 318.15213,451.28083 C 314.89094,445.65052 309.00879,435.45131 305.08068,428.61591 C 301.15257,421.78051 295.273,411.58129 292.015,405.95099 C 288.75698,400.32068 285.43355,394.55332 284.62958,393.13461 C 281.8434,388.21803 274.18592,374.98943 270.42066,368.58814 C 268.33983,365.05053 266.63732,361.88994 266.63732,361.5646 C 266.63732,360.62081 276.61282,355.04579 277.41474,355.54141 C 277.8138,355.78804 279.27596,357.99966 280.66398,360.45612 C 282.052,362.91258 283.78055,365.97102 284.5052,367.25266 C 286.46974,370.72719 305.94027,404.58326 312.72776,416.32708 C 315.98186,421.95738 319.35925,427.8369 320.23307,429.39266 C 323.10543,434.50666 333.16914,451.8619 334.87141,454.63703 C 336.3714,457.0824 336.53931,458.46818 336.54192,468.42434 C 336.54411,476.77371 336.30628,479.48808 335.57388,479.47289 C 335.03987,479.46181 332.97785,476.7529 330.99163,473.45308 z M 338.09832,408.42041 L 338.09832,338.90128 L 344.31232,338.90128 L 350.52632,338.90128 L 350.52632,398.45202 L 350.52632,458.00274 L 344.95775,467.97114 C 341.89504,473.45375 339.09874,477.93953 338.74375,477.93953 C 338.38876,477.93953 338.09832,446.65592 338.09832,408.42041 z M 346.29536,469.58947 C 347.89165,466.70578 350.2545,462.42395 351.54612,460.07428 C 352.83776,457.72461 354.70962,454.49833 355.70581,452.90478 C 356.702,451.31122 357.51707,449.87584 357.51707,449.71505 C 357.51707,449.55426 359.31955,446.31409 361.52258,442.51468 C 368.44863,430.56978 370.79193,426.47605 374.59153,419.68328 C 379.84029,410.29977 380.37446,409.3609 390.28003,392.10866 C 395.1858,383.56441 400.08013,375.00074 401.15632,373.07828 C 412.62204,352.59634 410.68665,354.44689 416.86356,358.05944 C 419.66526,359.69801 421.96295,361.3882 421.96954,361.81541 C 421.97613,362.24262 421.23215,363.81554 420.31625,365.31078 C 419.40035,366.80603 417.99558,369.19016 417.19452,370.60886 C 416.39347,372.02757 413.07158,377.79493 409.81255,383.42524 C 406.55353,389.05554 399.9703,400.47814 395.18316,408.80878 C 390.39603,417.13943 382.35115,431.12093 377.30567,439.87878 C 372.26018,448.63664 367.17558,457.51475 366.00656,459.60792 C 364.10779,463.00772 362.83276,464.02272 354.05367,469.12311 C 348.64861,472.26329 344.0388,474.83253 343.80965,474.83253 C 343.5805,474.83253 344.69906,472.47315 346.29536,469.58947 z M 206.81133,412.44299 C 203.61617,410.59688 195.23458,405.74265 188.18558,401.65581 C 181.13657,397.56896 173.97105,393.4443 172.2622,392.48987 C 170.55335,391.53545 163.5626,387.52679 156.7272,383.58174 C 149.8918,379.63669 137.30845,372.38945 128.7642,367.47677 C 92.936332,346.87686 70.970452,334.22657 66.142352,331.41244 L 61,328.41516 L 66.276795,319.48254 C 76.997086,301.33509 92.659846,280.28115 106.69888,265.14703 C 119.78403,251.0412 138.77053,233.99262 152.14045,224.3436 C 162.34106,216.98186 165.29246,214.92807 166.44469,214.38969 C 167.08104,214.09236 170.22323,212.10405 173.42732,209.97123 C 176.63142,207.8384 181.55799,204.88928 184.37525,203.41763 C 187.19252,201.94597 191.32916,199.66193 193.5678,198.34199 C 208.22486,189.69987 243.42683,176.2145 265.4722,170.79643 C 272.32215,169.11292 277.34217,168.08992 294.60032,164.86053 C 308.39711,162.27884 339.68612,160.78795 359.21769,161.78158 C 380.5054,162.86456 386.68506,163.57311 406.45232,167.19746 C 437.22382,172.83944 473.36165,186.06384 501.60419,202.01764 C 518.25662,211.42437 537.79355,224.67854 548.23339,233.65166 C 550.71861,235.78773 554.35138,238.90113 556.3062,240.57035 C 572.07517,254.03533 588.69973,271.82335 602.10812,289.57766 C 606.9523,295.99195 619.28181,314.48818 619.28181,315.34095 C 619.28181,315.77784 614.12613,319.05259 607.82475,322.61817 C 601.52336,326.18375 595.14431,329.85987 593.64906,330.78732 C 592.15382,331.71477 584.9883,335.88219 577.72569,340.04825 C 570.46307,344.2143 562.24894,348.94702 559.47206,350.56541 C 542.1286,360.67325 511.27346,378.58452 508.98331,379.87388 C 507.48807,380.71572 501.89547,383.935 496.55532,387.02783 C 469.30274,402.81157 467.6583,403.67415 467.01424,402.52328 C 464.46422,397.96664 453.56588,384.7353 447.87942,379.29228 C 424.77072,357.17287 402.35938,345.40553 371.11019,338.98367 C 357.84805,336.25824 338.27842,335.73775 324.69427,337.74917 C 278.66836,344.56426 240.78414,369.69767 216.8761,409.27865 C 214.70976,412.86513 212.86607,415.79953 212.77901,415.79953 C 212.69195,415.79953 210.0065,414.28909 206.81133,412.44299 z"
       id="path3982"
       style="fill:#187FC3" />
  </g>
</svg>